<?xml version="1.0" encoding="UTF-8" standalone="no"?>
<!-- Generator: Adobe Illustrator 19.1.0, SVG Export Plug-In . SVG Version: 6.00 Build 0)  -->

<svg
   version="1.1"
   id="DESIGNS"
   x="0px"
   y="0px"
   width="32px"
   height="32px"
   viewBox="0 0 32 32"
   style="enable-background:new 0 0 32 32;"
   xml:space="preserve"
   sodipodi:docname="alarm.svg"
   inkscape:version="1.2.2 (732a01da63, 2022-12-09)"
   xmlns:inkscape="http://www.inkscape.org/namespaces/inkscape"
   xmlns:sodipodi="http://sodipodi.sourceforge.net/DTD/sodipodi-0.dtd"
   xmlns="http://www.w3.org/2000/svg"
   xmlns:svg="http://www.w3.org/2000/svg"
   xmlns:rdf="http://www.w3.org/1999/02/22-rdf-syntax-ns#"><defs
   id="defs13" /><sodipodi:namedview
   id="namedview11"
   pagecolor="#ffffff"
   bordercolor="#000000"
   borderopacity="0.25"
   inkscape:showpageshadow="2"
   inkscape:pageopacity="0.0"
   inkscape:pagecheckerboard="0"
   inkscape:deskcolor="#d1d1d1"
   showgrid="false"
   inkscape:zoom="32.09375"
   inkscape:cx="11.840312"
   inkscape:cy="16.015579"
   inkscape:window-width="2560"
   inkscape:window-height="1377"
   inkscape:window-x="-8"
   inkscape:window-y="-8"
   inkscape:window-maximized="1"
   inkscape:current-layer="DESIGNS" />
<title
   property="dc:title"
   id="title2">to alarm</title><desc
   property="dc:description"
   id="desc4">An icon for &quot;alarm&quot; from the Lines and Angles series on to [icon]. Downloaded from http://www.toicon.com/icons/lines-and-angles_alarm by 127.0.0.1 on 2017-07-10. Licensed CC-BY, see http://toicon.com/license/ for details.</desc>
<path
   class="linesandangles_een"
   d="m 16.202652,3.52448 c -7.2828195,0 -13.20787,5.9250505 -13.20787,13.207871 0,4.284632 2.0604277,8.088499 5.2329581,10.502898 L 7.3256425,29.94022 h 2.7842195 l 0.430576,-1.29305 c 1.719665,0.820209 3.634806,1.29305 5.662214,1.29305 2.027408,0 3.942549,-0.472841 5.660894,-1.29305 l 0.430576,1.29305 h 2.784219 l -0.900777,-2.704971 c 3.17253,-2.414399 5.232958,-6.218266 5.232958,-10.502898 0,-7.2828205 -5.92505,-13.207871 -13.20787,-13.207871 z m 0,23.774167 c -5.825992,0 -10.5662961,-4.740305 -10.5662961,-10.566296 0,-5.825993 4.7403041,-10.5662971 10.5662961,-10.5662971 5.825992,0 10.566296,4.7403041 10.566296,10.5662971 0,5.825991 -4.740304,10.566296 -10.566296,10.566296 z M 8.27793,3.2035287 2.6738307,8.807628 c -1.5479625,-1.5479624 -1.5479625,-4.0561369 0,-5.6040993 1.5479624,-1.5466416 4.0561369,-1.5466416 5.6040993,0 z M 29.731473,8.807628 24.127375,3.2035287 c 1.547962,-1.5479623 4.056136,-1.5479623 5.604098,0 1.546642,1.5479624 1.546642,4.0561369 0,5.6040993 z m -12.208034,7.377916 3.575371,3.575371 -1.867593,1.867593 -4.349352,-4.349352 V 8.807628 h 2.641574 z"
   style="fill:#111918;stroke-width:1.32078"
   id="path6" />
<metadata
   id="metadata8"><work
     rdf:about=""><format>image/svg+xml</format><type
       rdf:resource="http://purl.org/dc/dcmitype/StillImage" /><license
       rdf:resource="http://creativecommons.org/licenses/by/4.0/" /><attributionname>Shannon E Thomas</attributionname><attributionurl>http://www.toicon.com/icons/lines-and-angles_alarm</attributionurl></work></metadata></svg>
