<?xml version="1.0" encoding="UTF-8" standalone="no"?>
<svg
   viewBox="0 0 48 48"
   width="48px"
   height="48px"
   version="1.1"
   id="svg6"
   sodipodi:docname="encrypt.svg"
   inkscape:version="1.2.2 (732a01da63, 2022-12-09)"
   xmlns:inkscape="http://www.inkscape.org/namespaces/inkscape"
   xmlns:sodipodi="http://sodipodi.sourceforge.net/DTD/sodipodi-0.dtd"
   xmlns="http://www.w3.org/2000/svg"
   xmlns:svg="http://www.w3.org/2000/svg">
  <defs
     id="defs10" />
  <sodipodi:namedview
     id="namedview8"
     pagecolor="#ffffff"
     bordercolor="#000000"
     borderopacity="0.25"
     inkscape:showpageshadow="2"
     inkscape:pageopacity="0.0"
     inkscape:pagecheckerboard="0"
     inkscape:deskcolor="#d1d1d1"
     showgrid="false"
     inkscape:zoom="21.395833"
     inkscape:cx="20.12074"
     inkscape:cy="23.976631"
     inkscape:window-width="2560"
     inkscape:window-height="1377"
     inkscape:window-x="-8"
     inkscape:window-y="-8"
     inkscape:window-maximized="1"
     inkscape:current-layer="svg6" />
  <path
     id="path2"
     d="m 23.882812,10.794402 c -3.823056,0 -6.951018,3.127962 -6.951018,6.951018 v 3.475509 H 19.2488 V 17.74542 c 0,-2.548704 2.085308,-4.634012 4.634012,-4.634012 2.548705,0 4.634012,2.085308 4.634012,4.634012 v 3.475509 H 30.83383 V 17.74542 c 0,-3.823056 -3.127961,-6.951018 -6.951018,-6.951018 z m -9.731878,12.743533 c -1.042652,0 -1.853152,0.810501 -1.853152,1.853152 V 35.58682 c 0,1.042651 0.8105,1.853152 1.853152,1.853152 h 19.463757 c 1.042651,0 1.853152,-0.810501 1.853152,-1.853152 V 25.391087 c 0,-1.042651 -0.810501,-1.853152 -1.853152,-1.853152 z m 0.463854,1.158503 c 0.579252,0 1.158503,0.579252 1.158503,1.158503 v 9.268025 c 0,0.579251 -0.579251,1.158503 -1.158503,1.158503 -0.57925,0 -1.158503,-0.579252 -1.158503,-1.158503 v -9.268025 c 0,-0.579251 0.579253,-1.158503 1.158503,-1.158503 z m 9.268024,1.158503 c 1.274352,0 2.317006,1.042654 2.317006,2.317006 0,0.810951 -0.463402,1.621 -1.158503,1.968551 v 4.982468 h -2.317006 v -4.982468 c -0.6951,-0.347551 -1.158503,-1.1576 -1.158503,-1.968551 0,-1.274352 1.042654,-2.317006 2.317006,-2.317006 z"
     style="fill:#f9f9f9;fill-opacity:1;stroke-width:1.1585" />
  <path
     id="path11724"
     style="fill:#f9f9f9;fill-opacity:1;fill-rule:evenodd;stroke-width:0.134522"
     d="M 23.882812 0.98242188 A 23.135345 23.135345 0 0 0 0.74804688 24.117188 A 23.135345 23.135345 0 0 0 23.882812 47.251953 A 23.135345 23.135345 0 0 0 47.017578 24.117188 A 23.135345 23.135345 0 0 0 23.882812 0.98242188 z M 23.882812 4.9082031 A 19.209347 19.209347 0 0 1 43.091797 24.117188 A 19.209347 19.209347 0 0 1 23.882812 43.326172 A 19.209347 19.209347 0 0 1 4.6738281 24.117188 A 19.209347 19.209347 0 0 1 23.882812 4.9082031 z " />
</svg>
