<?xml version="1.0" encoding="UTF-8" standalone="no"?>
<!-- Uploaded to: SVG Repo, www.svgrepo.com, Generator: SVG Repo Mixer Tools -->

<svg
   fill="#000000"
   height="800px"
   width="800px"
   version="1.1"
   id="Capa_1"
   viewBox="0 0 488.85 488.85"
   xml:space="preserve"
   sodipodi:docname="eye-white.svg"
   inkscape:version="1.2.2 (732a01da63, 2022-12-09)"
   xmlns:inkscape="http://www.inkscape.org/namespaces/inkscape"
   xmlns:sodipodi="http://sodipodi.sourceforge.net/DTD/sodipodi-0.dtd"
   xmlns="http://www.w3.org/2000/svg"
   xmlns:svg="http://www.w3.org/2000/svg"><defs
   id="defs9" /><sodipodi:namedview
   id="namedview7"
   pagecolor="#ffffff"
   bordercolor="#000000"
   borderopacity="0.25"
   inkscape:showpageshadow="2"
   inkscape:pageopacity="0.0"
   inkscape:pagecheckerboard="0"
   inkscape:deskcolor="#d1d1d1"
   showgrid="false"
   inkscape:zoom="1.28375"
   inkscape:cx="296.00779"
   inkscape:cy="400.38948"
   inkscape:window-width="2560"
   inkscape:window-height="1377"
   inkscape:window-x="-8"
   inkscape:window-y="-8"
   inkscape:window-maximized="1"
   inkscape:current-layer="Capa_1" />
<g
   id="g4"
   style="fill:#f4f5f6;fill-opacity:1"
   transform="matrix(0.97955209,0,0,0.97955209,5.7119766,7.2546982)">
	<path
   d="m 244.425,98.725 c -93.4,0 -178.1,51.1 -240.6,134.1 -5.1,6.8 -5.1,16.3 0,23.1 62.5,83.1 147.2,134.2 240.6,134.2 93.4,0 178.1,-51.1 240.6,-134.1 5.1,-6.8 5.1,-16.3 0,-23.1 -62.5,-83.1 -147.2,-134.2 -240.6,-134.2 z m 6.7,248.3 c -62,3.9 -113.2,-47.2 -109.3,-109.3 3.2,-51.2 44.7,-92.7 95.9,-95.9 62,-3.9 113.2,47.2 109.3,109.3 -3.3,51.1 -44.8,92.6 -95.9,95.9 z m -3.1,-47.4 c -33.4,2.1 -61,-25.4 -58.8,-58.8 1.7,-27.6 24.1,-49.9 51.7,-51.7 33.4,-2.1 61,25.4 58.8,58.8 -1.8,27.7 -24.2,50 -51.7,51.7 z"
   id="path2"
   style="fill:#f4f5f6;fill-opacity:1" />
</g>
</svg>
