<?xml version="1.0" encoding="UTF-8" standalone="no"?>
<!-- Uploaded to: SVG Repo, www.svgrepo.com, Generator: SVG Repo Mixer Tools -->

<svg
   width="800px"
   height="800px"
   viewBox="0 0 100 100"
   version="1.1"
   id="svg6"
   sodipodi:docname="keyboard-shortcut-svgrepo-com.svg"
   inkscape:version="1.3.2 (091e20e, 2023-11-25, custom)"
   xmlns:inkscape="http://www.inkscape.org/namespaces/inkscape"
   xmlns:sodipodi="http://sodipodi.sourceforge.net/DTD/sodipodi-0.dtd"
   xmlns="http://www.w3.org/2000/svg"
   xmlns:svg="http://www.w3.org/2000/svg">
  <defs
     id="defs6" />
  <sodipodi:namedview
     id="namedview6"
     pagecolor="#505050"
     bordercolor="#eeeeee"
     borderopacity="1"
     inkscape:showpageshadow="0"
     inkscape:pageopacity="0"
     inkscape:pagecheckerboard="0"
     inkscape:deskcolor="#505050"
     inkscape:zoom="1.0438664"
     inkscape:cx="279.72929"
     inkscape:cy="401.87136"
     inkscape:window-width="2560"
     inkscape:window-height="1377"
     inkscape:window-x="-8"
     inkscape:window-y="-8"
     inkscape:window-maximized="1"
     inkscape:current-layer="svg6" />
  <path
     style="fill:#333333;fill-opacity:0.49807692"
     d="m 66,14 -18,16 0,9 2,1 2,-7 14,-12 z m 28,13 -19,16 0,8 7,3 L 63,72 63,98 85,74 83,63 97,49 z M 53,41 33,58 33,78 39,61 53,49 z"
     id="path1" />
  <path
     style="fill:#f9f9f9"
     d="M 48,30 26,20 46,4.6 66,14 M 75,43 52,33 71,17 94,27 M 63,72 39,61 59,44 82,54 M 33,58 11,48 30,31 53,41"
     id="path2" />
  <path
     style="fill:#f2f2f2"
     d="M 11,48 30,31 53,41 33,58 z"
     id="path4" />
  <path
     style="fill:none;stroke:#111111;stroke-width:2"
     d="m 65.119747,55.035701 c -2,-3 -6,-3 -7,-1 -1,2 5,4 2,7 -1,1 -6,0 -7,-3 m 19,-35 -4,7 6,-1 v 5 l 8,-5 m -35,-11 1,4 m 3,-8 c -2,-2 -6,-2 -9,1 -2,2 0,5 4,5 3,0 7,-3 5,-6 z m -23,29 6,3 m -11,-1 12,-4 -3,9"
     id="path5" />
  <path
     style="fill:none;stroke:#f9f9f9;stroke-width:1;stroke-opacity:1"
     d="M 18,41 26,20 46,4.6 66,14 66,21 M 32,82 39,61 59,44 82,54 85,74 63,98 3.2,67 11,48 30,31 l 23,10 0,8 m -3,-9 2,-7 19,-16 23,10 3,22 -14,14"
     id="path6" />
</svg>
