<?xml version="1.0" encoding="UTF-8" standalone="no"?>
<svg
   viewBox="0 0 48 48"
   width="48px"
   height="48px"
   version="1.1"
   id="svg6"
   sodipodi:docname="plugin-passgen-dark.svg"
   inkscape:version="1.3.2 (091e20e, 2023-11-25, custom)"
   xmlns:inkscape="http://www.inkscape.org/namespaces/inkscape"
   xmlns:sodipodi="http://sodipodi.sourceforge.net/DTD/sodipodi-0.dtd"
   xmlns="http://www.w3.org/2000/svg"
   xmlns:svg="http://www.w3.org/2000/svg">
  <defs
     id="defs10">
    <rect
       x="6.4775662"
       y="10.773911"
       width="32.718319"
       height="26.240753"
       id="rect1" />
  </defs>
  <sodipodi:namedview
     id="namedview8"
     pagecolor="#ffffff"
     bordercolor="#000000"
     borderopacity="0.25"
     inkscape:showpageshadow="2"
     inkscape:pageopacity="0.0"
     inkscape:pagecheckerboard="0"
     inkscape:deskcolor="#d1d1d1"
     showgrid="false"
     inkscape:zoom="10.697917"
     inkscape:cx="-20.377799"
     inkscape:cy="10.983447"
     inkscape:window-width="2560"
     inkscape:window-height="1377"
     inkscape:window-x="-8"
     inkscape:window-y="-8"
     inkscape:window-maximized="1"
     inkscape:current-layer="svg6" />
  <path
     id="path11724"
     style="fill:#021a2b;fill-opacity:1;fill-rule:evenodd;stroke-width:0.134522"
     d="M 23.882812 0.98242188 A 23.135345 23.135345 0 0 0 0.74804688 24.117188 A 23.135345 23.135345 0 0 0 23.882812 47.251953 A 23.135345 23.135345 0 0 0 47.017578 24.117188 A 23.135345 23.135345 0 0 0 23.882812 0.98242188 z M 23.882812 4.9082031 A 19.209347 19.209347 0 0 1 43.091797 24.117188 A 19.209347 19.209347 0 0 1 23.882812 43.326172 A 19.209347 19.209347 0 0 1 4.6738281 24.117188 A 19.209347 19.209347 0 0 1 23.882812 4.9082031 z " />
  <text
     xml:space="preserve"
     id="text1"
     style="fill:#021a2b;-inkscape-font-specification:'Arial Bold';font-family:Arial;font-weight:bold;stroke-width:0.997;font-size:16px;paint-order:stroke fill markers;stroke:#f9f9f9;fill-opacity:1;white-space:pre;shape-inside:url(#rect1)" />
  <g
     class=""
     style="fill:#021a2b;fill-opacity:1"
     id="g2"
     transform="matrix(0.06648721,0,0,0.06648721,6.8583302,7.3122368)">
    <path
       d="m 255.76,44.764 c -6.176,0 -12.353,1.384 -17.137,4.152 L 85.87,137.276 c -9.57,5.536 -9.57,14.29 0,19.826 l 152.753,88.36 c 9.57,5.536 24.703,5.536 34.272,0 l 152.753,-88.36 c 9.57,-5.535 9.57,-14.29 0,-19.825 L 272.895,48.917 c -4.785,-2.77 -10.96,-4.153 -17.135,-4.153 z m 0.926,82.855 a 31.953,18.96 0 0 1 22.127,32.362 31.953,18.96 0 1 1 -45.188,-26.812 31.953,18.96 0 0 1 23.06,-5.55 z M 75.67,173.84 c -5.753,-0.155 -9.664,4.336 -9.664,12.28 v 157.696 c 0,11.052 7.57,24.163 17.14,29.69 l 146.93,84.848 c 9.57,5.526 17.14,1.156 17.14,-9.895 V 290.76 c 0,-11.052 -7.57,-24.16 -17.14,-29.688 L 83.146,176.225 c -2.69,-1.555 -5.225,-2.327 -7.476,-2.387 z m 360.773,0.002 c -2.25,0.06 -4.783,0.83 -7.474,2.385 l -146.935,84.847 c -9.57,5.527 -17.14,18.638 -17.14,29.69 v 157.7 c 0,11.05 7.57,15.418 17.14,9.89 L 428.97,373.51 c 9.57,-5.527 17.137,-18.636 17.137,-29.688 v -157.7 c 0,-7.942 -3.91,-12.432 -9.664,-12.278 z M 89.297,195.77 a 31.236,18.008 58.094 0 1 33.818,41.183 31.236,18.008 58.094 1 1 -45,-25.98 31.236,18.008 58.094 0 1 11.182,-15.203 z m 221.52,64.664 a 18.008,31.236 31.906 0 1 11.183,15.203 18.008,31.236 31.906 0 1 -45,25.98 18.008,31.236 31.906 0 1 33.818,-41.183 z M 145.296,289.1 a 31.236,18.008 58.094 0 1 33.818,41.183 31.236,18.008 58.094 0 1 -45,-25.98 31.236,18.008 58.094 0 1 11.182,-15.203 z m 277.523,29.38 a 18.008,31.236 31.906 0 1 11.181,15.204 18.008,31.236 31.906 0 1 -45,25.98 18.008,31.236 31.906 0 1 33.818,-41.184 z m -221.52,64.663 a 31.236,18.008 58.094 0 1 33.817,41.183 31.236,18.008 58.094 1 1 -45,-25.98 31.236,18.008 58.094 0 1 11.182,-15.203 z"
       fill="#fff"
       fill-opacity="1"
       id="path2"
       style="fill:#021a2b;fill-opacity:1" />
  </g>
</svg>
