<?xml version="1.0" encoding="UTF-8" standalone="no"?>
<svg
   width="24"
   height="24"
   viewBox="0 0 24 24"
   fill="none"
   stroke="#000"
   stroke-width="2"
   stroke-linecap="round"
   stroke-linejoin="round"
   version="1.1"
   id="svg8"
   sodipodi:docname="search.svg"
   inkscape:version="1.2.2 (732a01da63, 2022-12-09)"
   xmlns:inkscape="http://www.inkscape.org/namespaces/inkscape"
   xmlns:sodipodi="http://sodipodi.sourceforge.net/DTD/sodipodi-0.dtd"
   xmlns="http://www.w3.org/2000/svg"
   xmlns:svg="http://www.w3.org/2000/svg">
  <defs
     id="defs12" />
  <sodipodi:namedview
     id="namedview10"
     pagecolor="#ffffff"
     bordercolor="#000000"
     borderopacity="0.25"
     inkscape:showpageshadow="2"
     inkscape:pageopacity="0.0"
     inkscape:pagecheckerboard="0"
     inkscape:deskcolor="#d1d1d1"
     showgrid="false"
     inkscape:zoom="42.791667"
     inkscape:cx="7.2210321"
     inkscape:cy="11.801363"
     inkscape:window-width="2560"
     inkscape:window-height="1377"
     inkscape:window-x="-8"
     inkscape:window-y="-8"
     inkscape:window-maximized="1"
     inkscape:current-layer="svg8" />
  <path
     d="m 9.261453,0.633329 c -2.2378719,0 -4.4756527,0.8513366 -6.1785062,2.5541895 -3.4057073,3.4057078 -3.4057073,8.9513085 0,12.3570155 1.7028535,1.702853 3.9350618,2.55464 6.1901919,2.55464 2.2551303,0 4.4873383,-0.851787 6.1901923,-2.55464 C 18.846027,12.138827 18.845668,6.5932263 15.439966,3.1875185 13.73711,1.4846656 11.499328,0.633329 9.2614561,0.633329 Z m -0.011281,1.3577704 c 1.8869448,0 3.7738018,0.7129978 5.2005148,2.1627242 2.876444,2.876441 2.876354,7.5479634 0.02292,10.4244044 -2.87644,2.876444 -7.5479623,2.876444 -10.4244041,0 -2.8764417,-2.876441 -2.8764417,-7.5479634 0,-10.4244044 C 5.4759144,2.7271086 7.363221,1.9910994 9.250166,1.9910994 Z m 0,1.3806914 c -1.5877956,0 -3.083725,0.6211323 -4.21129,1.7717081 C 3.9573405,6.2250412 3.3591304,7.6288354 3.2900953,9.1475969 3.267087,9.5387934 3.5663234,9.8378531 3.95752,9.8608645 h 0.022922 c 0.3681841,0 0.6673351,-0.2992406 0.6903465,-0.6674241 C 4.7168079,8.0198511 5.1997841,6.9382192 6.0051868,6.1098051 6.8796252,5.2353667 8.0305616,4.7524833 9.2501722,4.7524833 c 0.3911964,0 0.6903458,-0.2991502 0.6903458,-0.6903456 0,-0.3911966 -0.2991494,-0.6903469 -0.6903458,-0.6903469 z M 5.2689974,12.046959 A 0.69034599,0.69034599 0 0 0 4.5786516,12.737306 0.69034599,0.69034599 0 0 0 5.2689974,13.427652 0.69034599,0.69034599 0 0 0 5.9593433,12.737306 0.69034599,0.69034599 0 0 0 5.2689974,12.046959 Z M 16.39813,15.843865 c -0.175463,0 -0.348049,0.06912 -0.474613,0.207193 -0.276139,0.276138 -0.276139,0.713176 0,0.966305 l 0.575288,0.575287 c -0.138075,0.276138 -0.207192,0.575379 -0.207192,0.897541 0,0.552276 0.207012,1.08163 0.598209,1.472827 l 2.945655,2.899362 c 0.414208,0.414211 0.943114,0.621132 1.472377,0.621132 0.529268,0 1.058621,-0.207011 1.472828,-0.598207 0.805405,-0.805405 0.805405,-2.116884 0,-2.922287 l -2.945193,-2.945655 c -0.391196,-0.391197 -0.920553,-0.598211 -1.472826,-0.598211 -0.322163,0 -0.621403,0.06912 -0.897541,0.207193 l -0.575288,-0.575287 c -0.138074,-0.138074 -0.31623,-0.207193 -0.491693,-0.207193 z m 1.96452,1.933058 c 0.184091,0 0.368094,0.06912 0.483152,0.207192 l 2.922283,2.922287 c 0.276141,0.276138 0.276141,0.713177 0,0.966305 -0.276137,0.276138 -0.713178,0.276138 -0.966305,0 l -2.922284,-2.899365 c -0.138074,-0.138075 -0.207193,-0.32198 -0.207193,-0.506074 0,-0.184091 0.06912,-0.368094 0.207193,-0.483153 0.138075,-0.138074 0.29906,-0.207192 0.483154,-0.207192 z"
     id="path129"
     style="fill:#010101;fill-opacity:1;fill-rule:evenodd;stroke-width:0.460231" />
</svg>
