<?xml version="1.0" encoding="UTF-8" standalone="no"?>
<svg
   viewBox="0 0 48 48"
   width="48px"
   height="48px"
   version="1.1"
   id="svg6"
   sodipodi:docname="settings.svg"
   inkscape:version="1.2.2 (732a01da63, 2022-12-09)"
   xmlns:inkscape="http://www.inkscape.org/namespaces/inkscape"
   xmlns:sodipodi="http://sodipodi.sourceforge.net/DTD/sodipodi-0.dtd"
   xmlns="http://www.w3.org/2000/svg"
   xmlns:svg="http://www.w3.org/2000/svg">
  <defs
     id="defs10" />
  <sodipodi:namedview
     id="namedview8"
     pagecolor="#ffffff"
     bordercolor="#000000"
     borderopacity="0.25"
     inkscape:showpageshadow="2"
     inkscape:pageopacity="0.0"
     inkscape:pagecheckerboard="0"
     inkscape:deskcolor="#d1d1d1"
     showgrid="false"
     inkscape:zoom="10.697917"
     inkscape:cx="27.996104"
     inkscape:cy="24.677701"
     inkscape:window-width="2560"
     inkscape:window-height="1377"
     inkscape:window-x="-8"
     inkscape:window-y="-8"
     inkscape:window-maximized="1"
     inkscape:current-layer="svg6" />
  <path
     id="path1931"
     style="fill:#f9f9f9;fill-opacity:1;stroke-width:0.63304"
     d="m 22.002486,10.420813 c -0.329756,0 -0.611762,0.211393 -0.664926,0.499602 l -0.643124,3.486316 c -0.807566,0.20544 -1.582531,0.487438 -2.312705,0.841149 l -3.25014,-2.054728 c -0.268515,-0.169711 -0.63488,-0.141864 -0.8684,0.06359 l -2.614283,2.314522 c -0.230829,0.204246 -0.264053,0.524808 -0.0763,0.761212 l 2.28727,2.895877 c -0.407148,0.652045 -0.730291,1.342034 -0.966504,2.060178 L 8.9692247,21.86807 C 8.6448525,21.9157 8.4060365,22.164282 8.4060365,22.454876 v 3.275574 c 0,0.288806 0.2330973,0.534375 0.5541045,0.58499 l 3.92415,0.615873 c 0.234866,0.716358 0.559826,1.406346 0.968319,2.060178 L 11.536273,31.8583 c -0.191124,0.236405 -0.159505,0.561849 0.07267,0.76848 l 2.6161,2.316338 c 0.230829,0.204247 0.593964,0.233366 0.861132,0.06722 l 3.277392,-2.031111 c 0.735557,0.357882 1.514425,0.640565 2.319971,0.8466 l 0.655843,3.489949 c 0.05317,0.286425 0.334023,0.497786 0.663108,0.497786 h 3.700691 c 0.326391,0 0.60658,-0.208293 0.663108,-0.492336 l 0.703078,-3.5063 c 0.806893,-0.210202 1.580915,-0.497206 2.309071,-0.855682 l 3.301009,2.049278 c 0.267841,0.167329 0.629629,0.138845 0.861133,-0.0654 l 2.617916,-2.316338 c 0.232848,-0.206631 0.262184,-0.533298 0.06904,-0.770296 l -2.35449,-2.892244 c 0.399073,-0.643112 0.717507,-1.323059 0.948336,-2.029294 l 3.982285,-0.619506 c 0.322353,-0.05002 0.555921,-0.296184 0.555921,-0.58499 V 22.45488 C 39.36026,22.163097 39.122117,21.913302 38.7964,21.866258 L 34.817748,21.292169 C 34.584899,20.585935 34.267812,19.90721 33.869412,19.264692 L 36.1912,16.336113 c 0.18776,-0.236403 0.154526,-0.558186 -0.0763,-0.763029 l -2.616109,-2.31453 c -0.233524,-0.206032 -0.602373,-0.232668 -0.870217,-0.06177 L 29.36935,15.26968 c -0.732866,-0.358484 -1.506217,-0.643604 -2.309071,-0.850232 l -0.693994,-3.504484 c -0.05653,-0.284638 -0.336044,-0.494152 -0.663108,-0.494152 z m 1.880321,6.850911 a 6.846182,6.846182 0 0 1 6.845462,6.845461 6.846182,6.846182 0 0 1 -6.845462,6.84546 6.846182,6.846182 0 0 1 -6.84546,-6.84546 6.846182,6.846182 0 0 1 6.84546,-6.845461 z" />
  <path
     id="path11724"
     style="fill:#f9f9f9;fill-opacity:1;fill-rule:evenodd;stroke-width:0.134522"
     d="M 23.882812 0.98242188 A 23.135345 23.135345 0 0 0 0.74804688 24.117188 A 23.135345 23.135345 0 0 0 23.882812 47.251953 A 23.135345 23.135345 0 0 0 47.017578 24.117188 A 23.135345 23.135345 0 0 0 23.882812 0.98242188 z M 23.882812 4.9082031 A 19.209347 19.209347 0 0 1 43.091797 24.117188 A 19.209347 19.209347 0 0 1 23.882812 43.326172 A 19.209347 19.209347 0 0 1 4.6738281 24.117188 A 19.209347 19.209347 0 0 1 23.882812 4.9082031 z " />
</svg>
